<svg width="77" height="77" viewBox="0 0 77 77" xmlns="../../../../../../www.w3.org/2000/svg.html"><title>ic_button</title><g fill="none" fill-rule="evenodd" opacity=".95"><circle fill="#FF5549" cx="38.5" cy="38.5" r="38.5"/><g fill="#FFF"><path d="M26.6 24.998l-2.496-2.095a16.33 16.33 0 0 1 12.492-5.792c4.815 0 9.36 2.102 12.47 5.766l-2.494 2.099a13.068 13.068 0 0 0-9.976-4.614c-3.86 0-7.504 1.691-9.997 4.636"/><path d="M41.823 29.47a6.49 6.49 0 0 0-5.227-2.605 6.48 6.48 0 0 0-5.223 2.604l-2.612-1.955a9.862 9.862 0 0 1 7.835-3.9 9.727 9.727 0 0 1 7.838 3.905l-2.611 1.95zm-5.248 12.435c-1.126 0-2.04-.91-2.04-2.032 0-1.122.914-2.032 2.04-2.032s2.04.91 2.04 2.032a2.037 2.037 0 0 1-2.04 2.032zm0 6.502c-1.126 0-2.04-.91-2.04-2.032 0-1.122.914-2.032 2.04-2.032s2.04.91 2.04 2.032a2.037 2.037 0 0 1-2.04 2.032zm8.162 1.892l-5.573-5.55 3.619-3.603 1.954.973v-7.232a3.256 3.256 0 0 0-3.253-3.142H31.69a3.261 3.261 0 0 0-3.265 3.251v16.256a3.261 3.261 0 0 0 3.265 3.25h9.794a3.256 3.256 0 0 0 3.253-3.141v-1.062z"/><path d="M46.369 34.996l4.897 4.877V48l3.265 8.127h-8.162v-6.502l-4.897-4.877 1.632-1.625 3.265 1.625z"/></g></g></svg>