<svg width="85" height="85" viewBox="0 0 85 85" xmlns="http://www.w3.org/2000/svg" xmlns:xlink="http://www.w3.org/1999/xlink"><title>ic_car</title><defs><ellipse id="a" cx="9.636" cy="9.815" rx="9.33" ry="9.506"/><mask id="b" x="-4.116" y="-4.116" width="26.893" height="27.244"><path fill="#fff" d="M-3.811-3.807h26.893v27.244H-3.811z"/><use xlink:href="#a"/></mask></defs><g fill="none" fill-rule="evenodd"><circle fill="#00AEEF" cx="42.5" cy="42.5" r="42.5"/><path d="M66.938 51a4.254 4.254 0 0 0-4.25-4.25 4.254 4.254 0 0 0-4.25 4.25 4.254 4.254 0 0 0 4.25 4.25 4.254 4.254 0 0 0 4.25-4.25M34 51a4.254 4.254 0 0 0-4.25-4.25A4.254 4.254 0 0 0 25.5 51a4.254 4.254 0 0 0 4.25 4.25A4.254 4.254 0 0 0 34 51m42.5-7.438v6.376c0 .282-.112.552-.311.75L73 53.877c-.199.2-.468.312-.751.312H68.2a6.374 6.374 0 0 1-5.513 3.187 6.374 6.374 0 0 1-5.512-3.188H35.262a6.374 6.374 0 0 1-5.512 3.188A6.381 6.381 0 0 1 23.375 51a6.381 6.381 0 0 1 6.375-6.375A6.381 6.381 0 0 1 36.125 51c0 .37-.038.73-.099 1.083.034-.003.064-.02.099-.02h20.283A6.372 6.372 0 0 1 56.312 51a6.381 6.381 0 0 1 6.375-6.375A6.381 6.381 0 0 1 69.063 51c0 .362-.037.716-.095 1.063h2.843l2.565-2.565v-5.124l-10.767-2.936h-5.17c-.181 0-.359-.046-.516-.134L48.6 36.125H33.11L20.523 40.32a1.064 1.064 0 0 1-.335.055H17v4.973l5.114 7.16a1.06 1.06 0 0 1-.863 1.68 1.06 1.06 0 0 1-.865-.446l-5.312-7.437a1.056 1.056 0 0 1-.199-.618v-6.374c0-.588.475-1.063 1.062-1.063h4.078l12.587-4.195c.108-.036.222-.055.335-.055h15.938c.18 0 .358.046.515.134l9.323 5.179h5.037c.095 0 .19.012.28.037l11.687 3.187c.462.127.783.546.783 1.026m-38.25-6.376c-.588 0-1.063.475-1.063 1.063v2.125c0 .588.475 1.063 1.063 1.063H51a1.062 1.062 0 1 0 0-2.126H39.312V38.25c0-.588-.474-1.063-1.062-1.063m-8.5 11.688a2.126 2.126 0 1 0 .002 4.252 2.126 2.126 0 0 0-.002-4.252M64.813 51a2.124 2.124 0 1 1-4.25.001 2.124 2.124 0 0 1 4.25-.001" fill="#FFF"/><g transform="translate(21.282 19.019)"><use fill="#00AEEF" xlink:href="#a"/><use stroke="#00AEEF" mask="url(#b)" stroke-width="8.233" stroke-linecap="round" stroke-linejoin="round" xlink:href="#a"/><use stroke="#FFF" stroke-width="2.138" stroke-linecap="round" stroke-linejoin="round" xlink:href="#a"/></g><path stroke="#FFF" stroke-width="2.138" stroke-linecap="round" stroke-linejoin="round" d="M33.73 27.325l-2.812 2.864-4.496-4.58M5.418 42.34h6.956M8.49 46.407h3.638m-1.127 4.066h3.196"/></g></svg>