<svg width="57" height="57" viewBox="0 0 57 57" xmlns="../../../../../../www.w3.org/2000/svg.html"><title>ic_edit</title><g fill="none" fill-rule="evenodd"><circle fill="#FFC107" cx="28.5" cy="28.5" r="28.5"/><path d="M38.122 24.45l.854-.854a4.784 4.784 0 0 0 0-6.76 4.784 4.784 0 0 0-6.76 0l-.853.855 6.76 6.759zm-8.439-5.08L19.11 29.942l4.24.84 8.874-8.874zM16.975 38.838a1.19 1.19 0 0 0 1.127.313l5.556-1.39-.927-4.68-4.68-.926-1.39 5.554c-.1.407.019.834.314 1.13m16.928-15.251l-8.873 8.876.84 4.239L36.443 26.13z" fill="#FFF"/></g></svg>