<svg width="24" height="24" viewBox="0 0 24 24" xmlns="../../../../../../www.w3.org/2000/svg.html"><title>ic_reload</title><path d="M21.28 8.04h-4a.44.44 0 0 0 0 .88h5.28c.243 0 .44-.195.44-.438v-5.28a.44.44 0 1 0-.88 0v4.553C20.457 3.794 16.566 1 12 1 6.373 1 1.74 5.228 1.087 10.68h.89C2.623 5.717 6.858 1.88 12 1.88c4.178 0 7.736 2.548 9.28 6.16zM1.88 20.8v-4.555C3.544 20.207 7.435 23 12 23c5.628 0 10.26-4.228 10.913-9.68h-.888c-.649 4.964-4.884 8.8-10.025 8.8-4.177 0-7.734-2.546-9.278-6.158H6.72a.44.44 0 1 0 0-.88H2.362l-.916-.002a.445.445 0 0 0-.446.442V20.8a.44.44 0 0 0 .88 0z" stroke="#00ADEF" stroke-width="1.1" fill="#00ADEF" fill-rule="evenodd" stroke-linecap="round" stroke-linejoin="round"/></svg>