<svg width="77" height="77" viewBox="0 0 77 77" xmlns="../../../../../../www.w3.org/2000/svg.html"><title>ic_send</title><g fill="none" fill-rule="evenodd"><circle fill="#5BBF6E" cx="38.5" cy="38.5" r="38.5"/><g fill="#FFF"><path d="M46.428 23.46L38.5 15.437l-7.928 8.023 2.381 2.41 3.863-3.908v7.816h3.368v-7.816l3.863 3.908zM38.5 43.112l15.1-9.483a3.294 3.294 0 0 0-1.625-.442h-26.95c-.593 0-1.142.17-1.625.442l15.1 9.483z"/><path d="M39.388 46.566a1.671 1.671 0 0 1-1.777 0l-15.95-10.015c0 .015-.004.03-.004.044v15.34c0 1.88 1.51 3.409 3.369 3.409h26.95c1.857 0 3.368-1.529 3.368-3.409v-15.34c0-.013-.005-.029-.005-.044L39.39 46.566z"/></g></g></svg>