<svg width="48" height="51" viewBox="0 0 48 51" xmlns="../../../../../../www.w3.org/2000/svg.html"><title>ic_user</title><g fill="none" fill-rule="evenodd"><g fill="#00ADEE"><path d="M20.487 23.289c-6.331 0-8.586-6.14-8.586-11.887C11.9 5.827 12.94.67 20.487.67s8.587 5.157 8.587 10.732c0 5.746-2.256 11.887-8.587 11.887"/><path d="M40.517 34.352c-.83-6.548-2.29-9.795-12.057-11.28-.061-.008-.528-.073-1.22-.16-1.705 1.91-4.007 2.98-6.753 2.98-2.746 0-5.048-1.07-6.753-2.98a80.54 80.54 0 0 0-1.227.162c-9.761 1.483-11.22 4.73-12.05 11.278a.595.595 0 0 0-.005.087c0 3.876 15.335 4.177 20.035 4.177 4.7 0 20.035-.301 20.035-4.177a.595.595 0 0 0-.005-.087"/></g><path opacity=".2" d="M0 2.381h42.179v41.667H0z"/><g transform="translate(23.5 26.786)"><ellipse stroke="#FFF" stroke-width="2.4" stroke-linecap="round" stroke-linejoin="round" fill="#00ADEE" cx="11.75" cy="11.607" rx="10.846" ry="10.714"/><rect fill="#FFF" transform="rotate(90 11.81 11.667)" x="10.605" y="5.714" width="2.41" height="11.905" rx="1.205"/><rect fill="#FFF" x="10.605" y="5.714" width="2.41" height="11.905" rx="1.205"/></g></g></svg>